<svg width="405" height="307" viewBox="0 0 405 307" fill="none" xmlns="http://www.w3.org/2000/svg">
<path fill-rule="evenodd" clip-rule="evenodd" d="M282.415 121.696C284.055 121.967 287.566 123.559 289.288 124.243C291.05 124.943 294.184 125.971 295.865 126.859C296.242 128.871 295.983 190.178 295.971 191.6L282.497 189.365L282.415 121.695V121.696ZM188.42 4.34523C177.249 8.72571 169.656 12.4659 161.481 19.0563C156.47 23.096 144.134 34.8195 141.727 41.31C137.646 40.6169 133.128 38.4022 128.332 37.2646C113.866 33.8345 99.8926 35.8927 86.802 41.0825C67.8248 48.606 52.4868 73.5142 46.9515 91.5852C42.6545 93.1683 38.8318 93.4697 34.4052 95.3369C17.9144 102.293 16.3448 108.402 8.70411 116.533C3.99819 127.257 -0.237331 131.889 0.0103487 147.768C0.204269 160.17 4.22186 169.736 9.6497 177.998C14.6705 185.64 21.8897 192.013 30.9492 196.532C55.6126 204.155 85.6404 205.746 106.143 198.341C110.622 193.497 109.432 186.348 105.512 182.405C101.069 177.935 93.9982 179.079 86.8299 179.079C76.6049 179.079 52.4139 180.289 44.0571 176.99C24.1649 169.136 18.5393 145.546 26.3432 132.985C29.6801 125.084 36.9943 118.557 46.1969 115.679C54.211 113.172 68.5524 117.811 69.4471 102.28C70.7038 80.4569 83.5265 65.6816 101.184 60.4889C125.641 53.2956 137.733 68.6124 145.149 68.9676C162.426 69.7961 153.309 43.1974 194.192 26.9148C226.182 14.6038 262.313 30.1385 277.342 61.0524C279.83 66.1711 282.673 87.3689 298.266 79.7638C347.643 27.4947 459.973 129.87 315.171 197.23C310.519 195.665 306.046 194.297 305.713 194.069L305.665 120.356L282.463 111.145L282.414 82.5286C282.149 82.5267 244.853 92.4752 243.688 93.0243L243.639 124.775L224.721 133.053C222.923 133.795 219.886 134.963 218.318 135.898L218.224 194.692C217.273 195.31 202.51 199.761 200.458 201.485C200.984 202.319 204.924 204.672 206.161 205.514C207.036 206.109 208.248 207.013 209.077 207.474C210.205 208.102 211.514 207.269 212.771 206.829C217.557 205.151 222.379 203.449 227.651 202.241C251.253 196.832 274.735 196.107 298.43 202.234C349.008 215.305 406.971 167.98 403.917 119.996C402.215 93.247 386.152 72.1932 371.367 62.3023C356.074 52.0716 337.593 46.207 317.869 48.8355C310.772 49.7811 305.097 52.2396 299.425 53.1516C296.695 49.1926 294.576 43.9904 292.006 39.9939C270.717 6.88156 229.574 -8.08773 188.422 4.34619L188.42 4.34523ZM227.901 192.119L227.892 142.255C229.767 141.346 242.278 135.859 243.604 135.592L243.646 185.492C243.646 190.941 245.506 188.716 234.139 190.931C232.64 191.224 229.216 192.131 227.902 192.119H227.901ZM253.204 112.195L253.325 100.489C254.452 99.9488 271.642 95.2764 272.692 95.3532L272.724 188.428C270.13 188.691 265.871 188.234 263.024 188.237C260.248 188.241 255.822 188.703 253.389 188.424L253.324 173.333L263 173.256L262.988 166.951C261.075 166.95 254.433 167.325 253.16 166.604C252.953 165.539 252.866 160.48 253.321 159.852C253.638 159.507 253.074 159.517 255.374 159.534C256.969 159.547 261.737 159.705 262.704 159.443C262.937 158.129 262.983 154.506 262.649 153.433C261.083 153.093 256.17 153.505 254.429 153.388C252.932 153.288 253.607 153.335 253.337 152.864L253.223 146.649C253.322 145.785 254.172 146.004 255.136 146.018L262.681 145.941L262.797 139.872L255.604 139.797C254.46 139.816 253.799 139.933 253.372 139.488C252.782 138.835 252.946 133.657 253.23 132.594C255.697 132.107 259.986 132.539 262.716 132.422L262.829 126.388C261.212 126.105 256.397 126.305 254.167 126.29C253.407 126.285 253.432 126.552 253.47 126.204C252.788 125.682 252.938 120.245 253.224 119.154L262.752 119.049C262.853 117.748 263.009 113.875 262.648 112.943L255.372 112.871C252.557 112.936 253.374 112.852 253.202 112.197L253.204 112.195Z" fill="black"/>
<path fill-rule="evenodd" clip-rule="evenodd" d="M178.678 201.86L153.358 201.772C152.525 199.81 152.541 180.052 153.367 177.889L178.678 177.865V201.86ZM190.356 173.883C190.37 173.374 190.273 172.827 190.044 172.248C187.822 166.603 169.703 170.525 153.483 169.063C151.757 161.064 147.833 156.955 138.51 154.403C131.303 152.43 112.971 153.052 105.591 154.693C96.355 156.746 88.9447 160.915 84.5911 165.206C73.0231 176.601 73.603 203.722 84.3444 214.324C88.7719 218.694 95.8932 222.963 105.095 224.998C112.708 226.681 130.48 227.491 138.102 225.516C147.83 222.997 151.542 218.829 153.499 210.749C163.932 209.856 175.143 211.124 182.406 210.64C182.65 210.668 182.902 210.684 183.157 210.684H185.879C188.343 210.684 190.359 209.303 190.359 207.617V173.97L190.357 173.884L190.356 173.883Z" fill="#003399"/>
<path d="M165.703 186.823C167.922 186.823 169.722 185.562 169.722 184.006C169.722 182.451 167.922 181.19 165.703 181.19C163.483 181.19 161.683 182.451 161.683 184.006C161.683 185.562 163.483 186.823 165.703 186.823Z" fill="#003399"/>
<path d="M165.703 199.293C167.922 199.293 169.722 198.032 169.722 196.477C169.722 194.921 167.922 193.66 165.703 193.66C163.483 193.66 161.683 194.921 161.683 196.477C161.683 198.032 163.483 199.293 165.703 199.293Z" fill="#003399"/>
<path fill-rule="evenodd" clip-rule="evenodd" d="M90.1083 190.104C90.9147 189.337 106.766 179.947 109.087 178.129L109.092 174.588C108.153 174.678 87.5057 187.6 86.7348 188.386L86.73 192.141C88.003 193.235 90.6728 194.755 92.2865 195.716C94.5473 197.063 107.898 205.844 109.086 205.876L109.079 202.385C105.933 200.285 102.836 198.367 99.4184 196.323C98.0945 195.532 90.4798 190.936 90.1083 190.103V190.104Z" fill="white"/>
<path fill-rule="evenodd" clip-rule="evenodd" d="M117.135 173.884C116.683 175.221 116.753 176.856 116.503 178.505C116.022 181.659 112.351 208.186 112.619 209.967L115.244 209.345C115.738 206.483 119.898 174.446 119.713 173.284L117.135 173.884Z" fill="white"/>
<path fill-rule="evenodd" clip-rule="evenodd" d="M141.4 190.104C140.594 189.337 124.742 179.947 122.422 178.129L122.416 174.588C123.355 174.678 144.003 187.6 144.774 188.386L144.778 192.141C143.505 193.235 140.835 194.755 139.222 195.716C136.961 197.063 123.61 205.844 122.423 205.876L122.43 202.385C125.576 200.285 128.672 198.367 132.09 196.323C133.413 195.532 141.029 190.936 141.4 190.103V190.104Z" fill="white"/>
<path d="M255.389 185.597V175.831H259.299C260.017 175.831 260.616 175.938 261.096 176.151C261.576 176.364 261.937 176.659 262.179 177.038C262.42 177.413 262.541 177.845 262.541 178.335C262.541 178.716 262.465 179.051 262.312 179.341C262.16 179.627 261.95 179.862 261.683 180.046C261.419 180.228 261.117 180.356 260.777 180.433V180.528C261.149 180.544 261.497 180.649 261.821 180.843C262.149 181.037 262.414 181.308 262.617 181.658C262.821 182.005 262.923 182.418 262.923 182.898C262.923 183.416 262.794 183.879 262.536 184.285C262.282 184.689 261.905 185.009 261.406 185.244C260.907 185.479 260.292 185.597 259.561 185.597H255.389ZM257.453 183.909H259.137C259.712 183.909 260.132 183.799 260.395 183.58C260.659 183.357 260.791 183.062 260.791 182.693C260.791 182.423 260.726 182.184 260.596 181.978C260.465 181.771 260.279 181.609 260.038 181.491C259.799 181.374 259.515 181.315 259.184 181.315H257.453V183.909ZM257.453 179.918H258.984C259.267 179.918 259.518 179.868 259.737 179.77C259.96 179.668 260.135 179.525 260.262 179.341C260.392 179.156 260.457 178.935 260.457 178.678C260.457 178.325 260.332 178.041 260.081 177.824C259.833 177.608 259.48 177.5 259.022 177.5H257.453V179.918ZM264.266 185.597V175.831H266.331V179.86H270.522V175.831H272.582V185.597H270.522V181.563H266.331V185.597H264.266Z" fill="#003399"/>
<path d="M74.6532 280.369C74.6532 271.953 69.9905 265.243 58.9572 261.944C72.833 258.305 78.4059 250.002 78.4059 241.699C78.4059 230.211 68.2836 224.07 52.9284 224.07C41.8961 224.07 37.6884 224.411 32.2289 224.411C28.2487 224.411 23.585 224.183 17.6705 223.956L17.5562 224.524C23.3566 227.14 23.8116 228.619 19.6029 255.574L16.7594 272.407C12.665 299.134 11.2999 300.841 5.15879 303.456L5.04456 304.026C10.5041 303.798 14.4842 303.798 18.4654 303.798C23.3556 303.798 29.3844 304.253 39.6199 304.253C63.0497 304.253 74.6503 294.358 74.6503 280.368L74.6532 280.369ZM43.8305 256.939L38.826 257.054L42.3511 235.672C43.603 235.557 45.6497 235.33 47.3556 235.33C54.6343 235.33 58.2746 238.628 58.2746 244.429C58.2746 251.594 52.8151 256.826 43.8305 256.939ZM40.6462 292.88C35.5284 292.88 33.3665 291.174 34.1633 286.284L37.2343 267.403L41.7838 267.518C50.3134 267.859 54.1812 272.067 54.1812 278.891C54.1812 286.966 48.4942 292.88 40.6471 292.88H40.6462Z" fill="black"/>
<path d="M175.83 305.542C171.081 302.166 162.218 289.713 159.368 273.04C168.76 269.03 175.515 261.854 175.515 250.562C175.515 238.743 165.806 230.617 147.444 230.617C142.168 230.617 136.258 231.04 132.565 231.04C126.233 231.04 122.857 230.934 117.581 230.723L117.475 231.251C122.962 233.678 123.279 235.05 119.375 260.059L116.737 275.678C112.938 300.476 111.672 302.059 105.972 304.486L105.867 305.014C111.037 304.803 115.364 304.698 121.59 304.698C127.5 304.698 132.248 304.803 137.737 305.014L137.842 304.486C131.827 302.271 131.089 300.371 134.466 279.054L134.783 277.365C137.421 277.26 139.638 277.154 141.221 277.049C145.864 299.42 160.321 305.119 175.622 306.069L175.833 305.541L175.83 305.542ZM136.469 267.341L140.584 242.436C141.639 242.33 142.694 242.225 144.594 242.225C151.348 242.225 156.308 245.285 156.308 252.355C156.308 260.27 150.398 267.34 140.057 267.34H136.47L136.469 267.341ZM220.814 283.275L220.286 283.064C214.588 290.134 209.944 293.089 198.336 293.089C192.532 293.089 191.265 291.295 192.005 287.074L194.537 271.984L201.819 272.195C212.793 272.617 214.904 273.251 216.171 277.577H216.804C217.542 270.717 218.703 262.592 220.497 255.943H219.865C217.227 259.953 215.01 260.903 203.718 261.325L196.226 261.536L199.286 242.857C200.869 242.646 202.979 242.54 205.302 242.54C219.97 242.54 221.764 244.756 224.086 251.51L224.614 251.404C224.931 247.605 226.83 236.525 228.097 230.51C219.021 230.827 210.474 231.038 195.383 231.038C189.262 231.038 181.242 230.932 176.177 230.721L176.071 231.249C181.559 233.676 181.876 235.048 177.971 260.058L175.333 275.676C171.534 300.475 170.268 302.058 164.569 304.484L164.463 305.012C169.528 304.801 174.911 304.696 180.925 304.696C190.739 304.696 205.83 304.801 215.011 305.012C216.066 300.053 218.071 291.611 220.815 283.274L220.814 283.275ZM212.929 305.013C217.783 304.802 221.371 304.697 225.064 304.697C231.502 304.697 237.622 305.329 244.587 305.329C277.933 305.329 293.657 286.967 293.657 264.701C293.657 256.787 291.441 248.449 284.371 241.379C277.933 234.942 267.275 230.721 251.235 230.721C247.857 230.721 243.636 231.038 237.832 231.038C234.139 231.038 229.918 230.932 224.641 230.721L224.535 231.249C230.022 233.676 230.339 235.048 226.435 260.058L223.797 275.676C219.998 300.475 218.732 302.058 213.032 304.484L212.927 305.012L212.929 305.013ZM247.542 293.512C241.105 293.512 239.838 291.506 240.472 287.391L247.754 242.857C248.599 242.752 249.969 242.54 252.08 242.54C259.362 242.54 264.744 245.707 267.487 248.45C272.131 252.988 273.713 259.003 273.713 264.596C273.713 282.009 263.899 293.512 247.542 293.512Z" fill="black"/>
<path d="M112.394 282.888L112.001 282.731C107.76 287.994 104.304 290.193 95.6638 290.193C91.3438 290.193 90.4011 288.858 90.9511 285.716L92.8357 274.484L98.2558 274.641C106.424 274.955 107.995 275.426 108.938 278.646H109.409C109.959 273.541 110.823 267.493 112.159 262.544H111.687C109.724 265.529 108.074 266.236 99.6699 266.55L94.0932 266.708L96.3713 252.805C97.5492 252.647 99.1207 252.569 100.849 252.569C111.767 252.569 113.102 254.218 114.83 259.245L115.223 259.167C115.458 256.339 116.872 248.091 117.815 243.615C111.059 243.85 104.697 244.007 93.4654 244.007C88.9092 244.007 82.94 243.929 79.17 243.771L79.0913 244.164C83.1751 245.971 83.4113 246.992 80.5044 265.607L78.5412 277.232C75.7131 295.69 74.7713 296.869 70.5291 298.676L70.4513 299.068C74.2212 298.911 78.2273 298.832 82.7038 298.832C90.0084 298.832 101.24 298.911 108.075 299.068C108.861 295.376 110.353 289.093 112.395 282.887L112.394 282.888Z" fill="black"/>
<path d="M395.228 302.659C392.062 300.971 391.429 299.283 389.529 291.157C380.77 253.695 376.76 235.965 374.966 228.157H362.408C355.655 239.765 349.428 249.895 324.418 289.996C318.614 299.283 317.032 300.971 313.972 302.659L313.866 303.187C317.032 302.976 322.203 302.871 326.424 302.871C330.539 302.871 336.027 302.871 340.248 303.187L340.353 302.659C338.243 301.921 337.715 300.865 337.715 299.177C337.715 296.961 338.665 294.955 342.042 288.73C342.464 287.991 342.991 287.147 343.414 286.303H370.007C370.324 287.992 370.639 289.574 370.956 291.051C371.379 293.057 371.484 294.85 371.484 296.223C371.484 299.389 370.639 301.076 367.58 302.659L367.474 303.187C370.746 302.871 375.073 302.871 381.087 302.871C386.258 302.871 391.535 302.976 395.122 303.187L395.228 302.659ZM349.745 275.328C353.649 268.469 358.187 260.555 363.252 251.9C365.047 260.976 366.629 268.679 367.896 275.328H349.745Z" fill="#003399"/>
<path d="M291.481 303.187C296.651 302.976 301.084 302.871 307.205 302.871C313.326 302.871 318.074 302.976 323.14 303.187L323.245 302.659C317.758 300.233 317.23 298.861 321.135 273.851L323.773 258.233C327.572 233.434 329.049 231.851 334.854 229.424L334.959 228.896C329.788 229.107 325.355 229.213 319.235 229.213C313.114 229.213 308.472 229.107 303.301 228.896L303.196 229.424C308.577 231.851 309.211 233.223 305.307 258.233L302.563 273.851C298.764 298.65 297.392 300.233 291.588 302.659L291.483 303.187H291.481Z" fill="#00B0F0"/>
<path fill-rule="evenodd" clip-rule="evenodd" d="M295.423 260.111L305.372 260.156L305.511 259.772C305.203 259.737 305.668 260.059 305.245 259.763L305.222 258.693L305.405 258.376L295.462 258.388L295.423 260.111Z" fill="#1B406B"/>
<path fill-rule="evenodd" clip-rule="evenodd" d="M295.774 262.779L299.311 262.816L302.795 262.717L302.796 261.078L295.523 261.001L295.774 262.779Z" fill="#1B406B"/>
<path fill-rule="evenodd" clip-rule="evenodd" d="M295.494 257.45L302.797 257.381L302.787 255.65L295.815 255.648L295.494 257.45Z" fill="#1B406B"/>
<path fill-rule="evenodd" clip-rule="evenodd" d="M267.247 284.796C266.435 283.854 259.896 280.686 260.959 275.196C261.67 271.529 266.092 268.875 269.372 267.464C273.157 265.837 278.319 265.141 282.931 264.874C285.507 264.725 288.18 264.816 290.758 264.917C292.038 264.967 293.314 265.036 294.602 265.136C295.3 265.191 296.815 265.529 296.922 263.659C294.844 265.975 294.485 260.973 294.485 259.334C294.484 257.538 294.772 252.641 296.931 254.916C296.744 252.866 295.014 253.359 292.896 253.321C287.685 253.229 281.576 253.325 276.559 254.111C269.813 255.169 264.543 256.962 259.72 260.154C252.884 264.678 248.983 275.431 258.475 282.106C260.216 283.331 264.449 284.953 267.247 284.793V284.796Z" fill="#0272EF"/>
</svg>
