<svg xmlns="http://www.w3.org/2000/svg" version="1.1" xmlns:xlink="http://www.w3.org/1999/xlink" width="512" height="512"><svg width="512" height="512" viewBox="0 0 512 512" fill="none" xmlns="http://www.w3.org/2000/svg">
<path fill-rule="evenodd" clip-rule="evenodd" d="M357.883 266.398C359.961 266.742 364.411 268.762 366.593 269.63C368.826 270.518 372.797 271.822 374.927 272.949C375.405 275.502 375.077 353.283 375.062 355.087L357.987 352.252L357.883 266.398ZM238.77 117.513C224.614 123.071 214.992 127.816 204.633 136.177C198.283 141.302 182.65 156.176 179.6 164.411C174.428 163.532 168.703 160.722 162.625 159.278C144.294 154.927 126.586 157.538 109.998 164.122C85.9492 173.668 66.5125 205.269 59.4981 228.196C54.0528 230.205 49.2086 230.587 43.5991 232.956C22.7016 241.781 20.7125 249.532 11.0301 259.848C5.0666 273.454 -0.300752 279.331 0.0131141 299.477C0.258855 315.211 5.35004 327.348 12.2283 337.83C18.5908 347.526 27.7392 355.611 39.2196 361.345C70.4736 371.016 108.526 373.035 134.507 363.64C140.183 357.494 138.675 348.424 133.707 343.421C128.077 337.75 119.117 339.202 110.033 339.202C97.0756 339.202 66.4202 340.737 55.8302 336.551C30.6223 326.587 23.4934 296.657 33.3827 280.721C37.6113 270.697 46.8801 262.416 58.5418 258.765C68.6975 255.584 86.8712 261.469 88.005 241.765C89.5976 214.077 105.847 195.332 128.223 188.744C159.215 179.617 174.539 199.05 183.936 199.501C205.83 200.552 194.277 166.806 246.085 146.147C286.623 130.528 332.409 150.237 351.454 189.459C354.607 195.953 358.21 222.847 377.97 213.198C440.542 146.883 582.889 276.769 399.392 362.23C393.497 360.245 387.829 358.509 387.407 358.22L387.346 264.698L357.944 253.012L357.882 216.706C357.546 216.703 310.284 229.325 308.807 230.022L308.745 270.305L284.772 280.807C282.493 281.749 278.645 283.231 276.658 284.417L276.539 359.01C275.334 359.794 256.626 365.441 254.025 367.629C254.692 368.687 259.685 371.672 261.252 372.74C262.361 373.495 263.897 374.642 264.947 375.227C266.377 376.024 268.036 374.967 269.629 374.409C275.693 372.28 281.804 370.12 288.485 368.588C318.394 361.725 348.151 360.805 378.178 368.579C442.271 385.162 515.723 325.12 511.853 264.242C509.697 230.305 489.341 203.593 470.605 191.044C451.226 178.064 427.806 170.624 402.811 173.959C393.818 175.158 386.626 178.278 379.439 179.435C375.979 174.412 373.294 167.812 370.037 162.741C343.059 120.731 290.922 101.739 238.773 117.514L238.77 117.513ZM288.802 355.746L288.79 292.482C291.166 291.329 307.021 284.367 308.701 284.029L308.754 347.338C308.754 354.251 311.111 351.428 296.707 354.238C294.807 354.61 290.467 355.761 288.802 355.746ZM320.866 254.344L321.02 239.493C322.448 238.807 344.231 232.879 345.562 232.977L345.602 351.063C342.315 351.396 336.918 350.817 333.31 350.821C329.793 350.826 324.184 351.412 321.101 351.058L321.018 331.911L333.28 331.814L333.265 323.814C330.841 323.813 322.424 324.289 320.81 323.374C320.548 322.023 320.438 315.605 321.014 314.808C321.416 314.37 320.701 314.383 323.616 314.404C325.637 314.421 331.679 314.621 332.905 314.289C333.2 312.622 333.258 308.025 332.835 306.664C330.851 306.233 324.625 306.755 322.419 306.607C320.522 306.48 321.377 306.54 321.035 305.942L320.89 298.057C321.016 296.961 322.093 297.239 323.314 297.256L332.876 297.159L333.023 289.459L323.908 289.364C322.458 289.388 321.62 289.536 321.079 288.972C320.331 288.143 320.539 281.574 320.899 280.225C324.025 279.607 329.461 280.155 332.92 280.007L333.063 272.351C331.014 271.992 324.912 272.246 322.087 272.227C321.123 272.221 321.155 272.559 321.203 272.118C320.339 271.456 320.529 264.558 320.892 263.173L332.966 263.04C333.094 261.39 333.291 256.476 332.834 255.293L323.614 255.202C320.046 255.284 321.082 255.178 320.864 254.347L320.866 254.344Z" fill="#777586" data-darkreader-inline-fill="" style="--darkreader-inline-fill: var(--darkreader-background-777586, #82878a);"></path>
<path fill-rule="evenodd" clip-rule="evenodd" d="M226.425 368.104L194.339 367.993C193.283 365.503 193.304 340.436 194.351 337.692L226.425 337.661V368.104ZM241.224 332.609C241.242 331.963 241.119 331.269 240.828 330.535C238.013 323.373 215.052 328.349 194.498 326.494C192.31 316.345 187.338 311.132 175.523 307.894C166.39 305.391 143.16 306.18 133.808 308.262C122.104 310.867 112.713 316.156 107.196 321.6C92.5368 336.057 93.2716 370.467 106.883 383.918C112.494 389.462 121.518 394.878 133.179 397.46C142.826 399.595 165.348 400.623 175.006 398.117C187.334 394.921 192.038 389.633 194.518 379.382C207.739 378.249 221.946 379.858 231.149 379.244C231.459 379.279 231.778 379.299 232.101 379.299H235.55C238.673 379.299 241.228 377.547 241.228 375.408V332.719L241.225 332.61L241.224 332.609Z" fill="#003399" data-darkreader-inline-fill="" style="--darkreader-inline-fill: var(--darkreader-background-003399, #405c95);"></path>
<path d="M209.983 349.027C212.795 349.027 215.076 347.427 215.076 345.453C215.076 343.48 212.795 341.88 209.983 341.88C207.17 341.88 204.889 343.48 204.889 345.453C204.889 347.427 207.17 349.027 209.983 349.027Z" fill="#003399" data-darkreader-inline-fill="" style="--darkreader-inline-fill: var(--darkreader-text-003399, #8ebff2);"></path>
<path d="M209.983 364.847C212.795 364.847 215.076 363.248 215.076 361.275C215.076 359.301 212.795 357.701 209.983 357.701C207.17 357.701 204.889 359.301 204.889 361.275C204.889 363.248 207.17 364.847 209.983 364.847Z" fill="#003399" data-darkreader-inline-fill="" style="--darkreader-inline-fill: var(--darkreader-text-003399, #8ebff2);"></path>
<path fill-rule="evenodd" clip-rule="evenodd" d="M114.187 353.189C115.209 352.216 135.296 340.303 138.238 337.996L138.244 333.504C137.054 333.618 110.889 350.013 109.912 351.01L109.906 355.774C111.519 357.162 114.903 359.09 116.948 360.309C119.813 362.018 136.731 373.159 138.236 373.2L138.227 368.771C134.241 366.106 130.316 363.673 125.985 361.08C124.308 360.076 114.658 354.245 114.187 353.188V353.189Z" fill="white" data-darkreader-inline-fill="" style="--darkreader-inline-fill: var(--darkreader-background-ffffff, #515253);"></path>
<path fill-rule="evenodd" clip-rule="evenodd" d="M148.437 332.611C147.864 334.307 147.953 336.381 147.636 338.474C147.026 342.475 142.374 376.131 142.714 378.39L146.04 377.601C146.666 373.97 151.938 333.324 151.704 331.85L148.437 332.611Z" fill="white" data-darkreader-inline-fill="" style="--darkreader-inline-fill: var(--darkreader-background-ffffff, #515253);"></path>
<path fill-rule="evenodd" clip-rule="evenodd" d="M179.186 353.189C178.164 352.216 158.076 340.303 155.137 337.996L155.129 333.504C156.319 333.618 182.484 350.013 183.462 351.01L183.467 355.774C181.853 357.162 178.47 359.09 176.426 360.309C173.561 362.018 156.642 373.159 155.138 373.2L155.147 368.771C159.133 366.106 163.057 363.673 167.388 361.08C169.065 360.076 178.716 354.245 179.186 353.188V353.189Z" fill="white" data-darkreader-inline-fill="" style="--darkreader-inline-fill: var(--darkreader-background-ffffff, #515253);"></path>
<path d="M323.635 347.471V335.081H328.59C329.499 335.081 330.259 335.217 330.867 335.487C331.475 335.757 331.933 336.132 332.239 336.612C332.545 337.088 332.698 337.636 332.698 338.258C332.698 338.741 332.602 339.166 332.408 339.534C332.215 339.897 331.949 340.195 331.611 340.429C331.276 340.66 330.893 340.822 330.463 340.92V341.04C330.934 341.061 331.375 341.194 331.786 341.44C332.201 341.686 332.537 342.03 332.794 342.474C333.053 342.914 333.182 343.438 333.182 344.047C333.182 344.704 333.019 345.292 332.692 345.807C332.37 346.319 331.892 346.725 331.26 347.024C330.627 347.322 329.848 347.471 328.922 347.471H323.635ZM326.25 345.33H328.384C329.113 345.33 329.645 345.19 329.978 344.912C330.313 344.629 330.48 344.255 330.48 343.787C330.48 343.444 330.398 343.141 330.233 342.88C330.067 342.617 329.831 342.412 329.526 342.262C329.223 342.114 328.863 342.039 328.444 342.039H326.25V345.33ZM326.25 340.266H328.19C328.549 340.266 328.867 340.203 329.145 340.079C329.427 339.949 329.649 339.768 329.81 339.534C329.975 339.3 330.057 339.019 330.057 338.693C330.057 338.245 329.899 337.885 329.581 337.61C329.266 337.336 328.819 337.199 328.239 337.199H326.25V340.266ZM334.884 347.471V335.081H337.501V340.193H342.812V335.081H345.422V347.471H342.812V342.353H337.501V347.471H334.884Z" fill="#003399" data-darkreader-inline-fill="" style="--darkreader-inline-fill: var(--darkreader-text-003399, #8ebff2);"></path>
</svg><style>@media (prefers-color-scheme: light) { :root { filter: none; } }
@media (prefers-color-scheme: dark) { :root { filter: none; } }
</style></svg>